<svg version="1.1" viewBox="0.0 0.0 1080.0 675.0" fill="none" stroke="none" stroke-linecap="square" stroke-miterlimit="10" xmlns:xlink="http://www.w3.org/1999/xlink" xmlns="http://www.w3.org/2000/svg"><clipPath id="p.0"><path d="m0 0l1080.0 0l0 675.0l-1080.0 0l0 -675.0z" clip-rule="nonzero"/></clipPath><g clip-path="url(#p.0)"><path fill="#000000" fill-opacity="0.0" d="m0 0l1080.0 0l0 675.0l-1080.0 0z" fill-rule="evenodd"/><path fill="#000000" fill-opacity="0.0" d="m550.01013 244.33305l162.86615 94.12599l-162.86615 94.12598z" fill-rule="evenodd"/><path stroke="#fd3a0f" stroke-width="8.0" stroke-linejoin="round" stroke-linecap="butt" d="m550.01013 244.33305l162.86615 94.12599l-162.86615 94.12598z" fill-rule="evenodd"/><path fill="#000000" fill-opacity="0.0" d="m599.1571 94.97516l417.70074 0l0 337.82678l-417.70074 0z" fill-rule="evenodd"/><path fill="#9a0794" d="m767.3941 261.32703q3.0625 0 4.9375 2.046875q1.890625 2.046875 1.890625 4.78125l0 99.328125q0 33.109375 -18.609375 49.671875q-18.609375 16.546875 -49.328125 16.546875q-30.375 0 -48.984375 -16.546875q-18.59375 -16.5625 -18.59375 -49.671875l0 -99.328125q0 -2.734375 2.046875 -4.78125q2.046875 -2.046875 4.78125 -2.046875q3.078125 0 4.953125 2.046875q1.875 2.046875 1.875 4.78125l0 99.328125q0 25.9375 14.5 39.59375q14.515625 13.65625 39.421875 13.65625q25.265625 0 39.765625 -13.65625q14.515625 -13.65625 14.515625 -39.59375l0 -99.328125q0 -2.734375 1.875 -4.78125q1.875 -2.046875 4.953125 -2.046875zm203.0896 0q3.0625 0 4.9375 2.046875q1.890625 2.046875 1.890625 4.78125l0 156.67188q0 2.734375 -2.046875 4.78125q-2.046875 2.046875 -4.78125 2.046875q-3.078125 0 -4.953125 -2.046875q-1.875 -2.046875 -1.875 -4.78125l0 -48.46875l5.453125 -4.4375q0 10.921875 -5.46875 22.1875q-5.453125 11.265625 -15.015625 20.484375q-9.546875 9.21875 -22.515625 14.84375q-12.96875 5.625 -27.984375 5.625q-22.875 0 -40.796875 -11.9375q-17.921875 -11.953125 -28.15625 -32.421875q-10.234375 -20.484375 -10.234375 -46.078125q0 -25.953125 10.40625 -45.921875q10.40625 -19.96875 28.328125 -31.390625q17.921875 -11.4375 40.453125 -11.4375q14.671875 0 27.640625 5.296875q12.96875 5.28125 22.6875 14.84375q9.734375 9.546875 15.1875 22.359375q5.46875 12.796875 5.46875 27.8125l-5.453125 -8.53125l0 -49.5q0 -2.734375 1.875 -4.78125q1.875 -2.046875 4.953125 -2.046875zm-71.6875 160.76562q19.125 0 34.140625 -10.0625q15.015625 -10.078125 23.546875 -27.65625q8.53125 -17.578125 8.53125 -39.75q0 -21.171875 -8.53125 -38.40625q-8.53125 -17.234375 -23.546875 -27.296875q-15.015625 -10.078125 -34.140625 -10.078125q-18.765625 0 -33.796875 9.734375q-15.015625 9.71875 -23.71875 26.796875q-8.703125 17.0625 -8.703125 39.25q0 22.171875 8.53125 39.75q8.546875 17.578125 23.5625 27.65625q15.015625 10.0625 34.125 10.0625z" fill-rule="nonzero"/><path fill="#000000" fill-opacity="0.0" d="m531.58984 432.6005l-162.86615 -94.12598l162.86615 -94.12599z" fill-rule="evenodd"/><path stroke="#9a0794" stroke-width="8.0" stroke-linejoin="round" stroke-linecap="butt" d="m531.58984 432.6005l-162.86615 -94.12598l162.86615 -94.12599z" fill-rule="evenodd"/><path fill="#000000" fill-opacity="0.0" d="m63.143044 94.97516l417.7008 0l0 337.82678l-417.7008 0z" fill-rule="evenodd"/><path fill="#fd3a0f" d="m244.0086 261.32703q3.0625 0 4.9375 2.046875q1.890625 2.046875 1.890625 4.78125l0 156.67188q0 2.734375 -2.046875 4.78125q-2.046875 2.046875 -4.78125 2.046875q-3.078125 0 -4.953125 -2.046875q-1.875 -2.046875 -1.875 -4.78125l0 -48.46875l5.453125 -4.4375q0 10.921875 -5.46875 22.1875q-5.453125 11.265625 -15.015625 20.484375q-9.546875 9.21875 -22.515625 14.84375q-12.96875 5.625 -27.984375 5.625q-22.875 0 -40.796875 -11.9375q-17.921883 -11.953125 -28.156258 -32.421875q-10.234375 -20.484375 -10.234375 -46.078125q0 -25.953125 10.40625 -45.921875q10.40625 -19.96875 28.328133 -31.390625q17.921875 -11.4375 40.453125 -11.4375q14.671875 0 27.640625 5.296875q12.96875 5.28125 22.6875 14.84375q9.734375 9.546875 15.1875 22.359375q5.46875 12.796875 5.46875 27.8125l-5.453125 -8.53125l0 -49.5q0 -2.734375 1.875 -4.78125q1.875 -2.046875 4.953125 -2.046875zm-71.6875 160.76562q19.125 0 34.140625 -10.0625q15.015625 -10.078125 23.546875 -27.65625q8.53125 -17.578125 8.53125 -39.75q0 -21.171875 -8.53125 -38.40625q-8.53125 -17.234375 -23.546875 -27.296875q-15.015625 -10.078125 -34.140625 -10.078125q-18.765625 0 -33.796875 9.734375q-15.015633 9.71875 -23.718758 26.796875q-8.703125 17.0625 -8.703125 39.25q0 22.171875 8.53125 39.75q8.546875 17.578125 23.562508 27.65625q15.015625 10.0625 34.125 10.0625zm260.44254 -160.76562q3.0625 0 4.9375 2.046875q1.890625 2.046875 1.890625 4.78125l0 99.328125q0 33.109375 -18.609375 49.671875q-18.609375 16.546875 -49.328125 16.546875q-30.375 0 -48.984375 -16.546875q-18.59375 -16.5625 -18.59375 -49.671875l0 -99.328125q0 -2.734375 2.046875 -4.78125q2.046875 -2.046875 4.78125 -2.046875q3.078125 0 4.953125 2.046875q1.875 2.046875 1.875 4.78125l0 99.328125q0 25.9375 14.5 39.59375q14.515625 13.65625 39.421875 13.65625q25.265625 0 39.765625 -13.65625q14.515625 -13.65625 14.515625 -39.59375l0 -99.328125q0 -2.734375 1.875 -4.78125q1.875 -2.046875 4.953125 -2.046875z" fill-rule="nonzero"/></g></svg>