<?xml version="1.0" standalone="no"?>
<!DOCTYPE svg PUBLIC "-//W3C//DTD SVG 20010904//EN"
 "http://www.w3.org/TR/2001/REC-SVG-20010904/DTD/svg10.dtd">
<svg version="1.0" xmlns="http://www.w3.org/2000/svg"
 width="700.000000pt" height="700.000000pt" viewBox="0 0 700.000000 700.000000"
 preserveAspectRatio="xMidYMid meet">
<metadata>
Created by potrace 1.11, written by Peter Selinger 2001-2013
</metadata>
<g transform="translate(0.000000,700.000000) scale(0.100000,-0.100000)"
fill="#000000" stroke="none">
<path d="M3365 3819 c-38 -23 -170 -99 -292 -169 l-223 -129 0 89 c0 80 -2 90
-22 104 -19 13 -25 14 -43 2 -18 -12 -21 -27 -25 -131 l-5 -118 -75 -45 c-41
-24 -93 -54 -115 -66 -130 -70 -202 -119 -198 -135 2 -9 84 -62 181 -118 234
-135 215 -117 198 -180 -26 -98 -75 -155 -171 -200 -54 -25 -71 -28 -165 -27
-94 0 -112 3 -167 28 -71 32 -118 79 -153 151 l-25 50 -3 385 c-3 378 -3 385
-24 403 -18 15 -23 16 -42 4 -21 -14 -21 -19 -21 -393 0 -209 3 -392 7 -409
44 -200 193 -305 433 -306 206 0 361 98 410 262 10 32 21 59 24 59 3 0 17 -9
31 -20 14 -11 28 -20 31 -20 5 0 453 -257 505 -290 12 -7 29 -10 38 -7 15 6
16 60 14 634 -3 549 -5 628 -18 630 -8 2 -46 -16 -85 -38z m53 -872 l-3 -285
-280 162 -280 162 -3 237 c-2 217 -1 237 15 247 10 6 137 80 283 164 l265 153
3 -278 c1 -153 1 -406 0 -562z m-658 278 l0 -185 -82 49 c-102 59 -176 101
-205 115 -13 6 -22 15 -20 19 2 6 284 178 305 186 1 1 2 -82 2 -184z"/>
<path d="M3545 3848 c-3 -7 -4 -292 -3 -633 3 -549 5 -620 18 -623 9 -1 89 40
179 93 90 52 164 95 166 95 2 0 32 17 66 38 35 21 89 53 120 70 l57 32 16 -51
c42 -127 139 -214 280 -248 103 -25 283 -9 365 33 59 31 127 94 154 144 49 91
55 144 56 539 l1 362 -22 15 c-19 13 -25 14 -43 2 -19 -13 -20 -25 -25 -397
-5 -346 -7 -388 -24 -429 -39 -93 -98 -147 -199 -180 -70 -24 -203 -21 -276 5
-98 36 -182 135 -193 229 -3 25 3 32 47 57 225 126 355 205 360 216 7 19 -3
25 -215 148 l-195 112 -5 113 c-4 99 -7 114 -25 126 -18 12 -24 11 -43 -2 -20
-13 -22 -24 -22 -95 0 -43 -3 -79 -6 -79 -3 0 -131 72 -284 160 -153 88 -283
160 -289 160 -7 0 -14 -6 -16 -12z m336 -226 l254 -148 2 -250 3 -249 -227
-130 c-125 -71 -249 -142 -275 -158 l-48 -27 0 560 c0 541 1 561 18 555 11 -3
133 -72 273 -153z m459 -267 c8 -6 35 -21 60 -35 25 -13 73 -40 108 -60 l62
-36 -37 -21 c-43 -23 -222 -126 -270 -155 l-33 -20 0 197 0 196 48 -27 c26
-15 54 -32 62 -39z"/>
<path d="M1000 3748 c-235 -60 -391 -271 -399 -540 -7 -249 107 -465 294 -558
225 -111 481 -37 626 181 16 23 17 21 17 -56 0 -147 -1 -144 28 -151 17 -5 31
-1 42 10 15 15 17 65 18 534 0 284 -3 524 -7 533 -12 23 -47 30 -64 12 -17
-17 -18 -19 -16 -138 l1 -90 -17 33 c-22 45 -97 127 -148 162 -95 65 -266 96
-375 68z m210 -84 c19 -3 60 -19 92 -36 147 -78 239 -243 241 -432 2 -163 -43
-292 -136 -387 -211 -220 -561 -141 -678 152 -31 79 -31 83 -34 214 -3 103 0
129 19 185 31 90 68 150 127 205 99 92 218 125 369 99z"/>
<path d="M5713 3750 c-63 -13 -161 -64 -215 -110 -77 -66 -147 -187 -174 -297
-4 -15 -8 -82 -10 -148 -2 -94 1 -135 16 -187 55 -199 178 -336 348 -388 189
-59 394 7 517 166 28 35 50 64 50 64 0 0 0 -44 0 -97 -1 -103 10 -133 45 -133
44 0 45 5 45 549 1 284 -2 523 -7 532 -10 22 -43 30 -64 14 -14 -10 -17 -30
-18 -109 0 -53 -3 -96 -6 -96 -3 0 -17 20 -33 44 -52 82 -133 144 -241 183
-50 18 -196 25 -253 13z m238 -95 c180 -64 300 -245 301 -455 1 -96 -7 -152
-31 -218 -72 -195 -226 -306 -414 -297 -145 7 -263 80 -337 210 -53 94 -71
170 -71 300 1 230 132 417 329 468 64 16 164 12 223 -8z"/>
</g>
</svg>
